<svg xmlns="http://www.w3.org/2000/svg" version="1.1" xmlns:xlink="http://www.w3.org/1999/xlink" xmlns:svgjs="http://svgjs.dev/svgjs" width="1000" height="1000" viewBox="0 0 1000 1000"><rect width="1000" height="1000" fill="#edbbba"></rect><g transform="matrix(0.7,0,0,0.7,149.57575757575762,419.1152735905237)"><svg viewBox="0 0 396 92" data-background-color="#edbbba" preserveAspectRatio="xMidYMid meet" height="232" width="1000" xmlns="http://www.w3.org/2000/svg" xmlns:xlink="http://www.w3.org/1999/xlink"><g id="tight-bounds" transform="matrix(1,0,0,1,0.23999999999995225,-0.17860326556760242)"><svg viewBox="0 0 395.52 92.35720653113518" height="92.35720653113518" width="395.52"><g><svg viewBox="0 0 531.4131972878315 124.08939728783156" height="92.35720653113518" width="395.52"><g transform="matrix(1,0,0,1,0,2.184883261459653)"><svg viewBox="0 0 395.52 119.71963076491225" height="119.71963076491225" width="395.52"><g id="textblocktransform"><svg viewBox="0 0 395.52 119.71963076491225" height="119.71963076491225" width="395.52" id="textblock"><g><rect width="395.52" height="92.0263438596491" fill="none" stroke-width="9.018103199999999" stroke="#374151" data-fill-palette-color="none" data-stroke-palette-color="tertiary"></rect><rect width="395.52" height="27.693286905263154" y="92.0263438596491" fill="#374151" data-fill-palette-color="tertiary"></rect></g><g><svg viewBox="0 0 395.52 92.0263438596491" height="92.0263438596491" width="395.52"><g transform="matrix(1,0,0,1,23.607599999999998,23.607599999999994)"><svg width="348.3048" viewBox="2.3499999046325684 -35.650001525878906 282.1399841308594 36.30000305175781" height="44.811143859649114" data-palette-color="#374151"><path d="M16.75 0.65L16.75 0.65Q12.6 0.65 9.35-1.07 6.1-2.8 4.23-5.95 2.35-9.1 2.35-13.45L2.35-13.45 2.35-35 11.7-35 11.7-13.3Q11.7-11.65 12.33-10.38 12.95-9.1 14.08-8.35 15.2-7.6 16.75-7.6L16.75-7.6Q18.3-7.6 19.45-8.35 20.6-9.1 21.2-10.38 21.8-11.65 21.8-13.3L21.8-13.3 21.8-35 31.25-35 31.25-13.3Q31.25-11.65 31.85-10.38 32.45-9.1 33.6-8.35 34.75-7.6 36.3-7.6L36.3-7.6Q37.85-7.6 38.98-8.35 40.1-9.1 40.73-10.38 41.35-11.65 41.35-13.3L41.35-13.3 41.35-35 50.65-35 50.65-13.45Q50.65-9.1 48.8-5.95 46.95-2.8 43.73-1.07 40.5 0.65 36.3 0.65L36.3 0.65Q34.3 0.65 32.5 0.2 30.7-0.25 29.2-1.1 27.7-1.95 26.5-3.15L26.5-3.15Q25.3-2 23.8-1.13 22.3-0.25 20.53 0.2 18.75 0.65 16.75 0.65ZM73.1 0.65L73.1 0.65Q68.95 0.65 65.5-0.73 62.05-2.1 59.57-4.58 57.1-7.05 55.72-10.35 54.35-13.65 54.35-17.5L54.35-17.5Q54.35-21.35 55.72-24.68 57.1-28 59.57-30.45 62.05-32.9 65.5-34.27 68.95-35.65 73.1-35.65L73.1-35.65Q77.3-35.65 80.72-34.27 84.15-32.9 86.65-30.45 89.15-28 90.5-24.68 91.85-21.35 91.85-17.5L91.85-17.5Q91.85-13.65 90.5-10.35 89.15-7.05 86.65-4.58 84.15-2.1 80.72-0.73 77.3 0.65 73.1 0.65ZM73.1-7.25L73.1-7.25Q75.15-7.25 76.82-8.03 78.5-8.8 79.72-10.23 80.95-11.65 81.57-13.5 82.2-15.35 82.2-17.5L82.2-17.5Q82.2-19.65 81.57-21.53 80.95-23.4 79.72-24.8 78.5-26.2 76.82-26.98 75.15-27.75 73.1-27.75L73.1-27.75Q71.1-27.75 69.4-26.98 67.7-26.2 66.5-24.8 65.3-23.4 64.65-21.53 64-19.65 64-17.5L64-17.5Q64-15.35 64.65-13.5 65.3-11.65 66.5-10.23 67.7-8.8 69.4-8.03 71.1-7.25 73.1-7.25ZM110 0.65L110 0.65Q105.84 0.65 102.59-1.07 99.34-2.8 97.47-5.95 95.59-9.1 95.59-13.45L95.59-13.45 95.59-35 104.95-35 104.95-13.3Q104.95-11.65 105.57-10.38 106.2-9.1 107.32-8.35 108.45-7.6 110-7.6L110-7.6Q111.55-7.6 112.7-8.35 113.84-9.1 114.45-10.38 115.05-11.65 115.05-13.3L115.05-13.3 115.05-35 124.5-35 124.5-13.3Q124.5-11.65 125.09-10.38 125.7-9.1 126.84-8.35 128-7.6 129.55-7.6L129.55-7.6Q131.09-7.6 132.22-8.35 133.34-9.1 133.97-10.38 134.59-11.65 134.59-13.3L134.59-13.3 134.59-35 143.9-35 143.9-13.45Q143.9-9.1 142.05-5.95 140.19-2.8 136.97-1.07 133.75 0.65 129.55 0.65L129.55 0.65Q127.55 0.65 125.75 0.2 123.95-0.25 122.45-1.1 120.95-1.95 119.75-3.15L119.75-3.15Q118.55-2 117.05-1.13 115.55-0.25 113.77 0.2 112 0.65 110 0.65ZM165.64 0L149.24 0 149.24-7.75 164.14-7.75Q165.09-7.75 165.77-8.15 166.44-8.55 166.84-9.25 167.24-9.95 167.24-10.75L167.24-10.75Q167.24-11.6 166.84-12.3 166.44-13 165.77-13.4 165.09-13.8 164.14-13.8L164.14-13.8 159.19-13.8Q156.04-13.8 153.49-15.05 150.94-16.3 149.42-18.63 147.89-20.95 147.89-24.25L147.89-24.25Q147.89-27.5 149.34-29.9 150.79-32.3 153.24-33.65 155.69-35 158.69-35L158.69-35 174.39-35 174.39-27.25 159.89-27.25Q159.09-27.25 158.47-26.88 157.84-26.5 157.49-25.9 157.14-25.3 157.14-24.55L157.14-24.55Q157.14-23.8 157.49-23.18 157.84-22.55 158.47-22.18 159.09-21.8 159.89-21.8L159.89-21.8 165.14-21.8Q168.64-21.8 171.19-20.5 173.74-19.2 175.14-16.88 176.54-14.55 176.54-11.4L176.54-11.4Q176.54-7.8 175.07-5.23 173.59-2.65 171.12-1.33 168.64 0 165.64 0L165.64 0ZM202.19 0L180.74 0 180.74-35 201.59-35Q204.34-35 206.56-33.83 208.79-32.65 210.14-30.55 211.49-28.45 211.49-25.6L211.49-25.6Q211.49-24.05 210.89-22.63 210.29-21.2 209.29-20.08 208.29-18.95 206.89-18.15L206.89-18.15Q208.54-17.4 209.77-16.1 210.99-14.8 211.67-13.15 212.34-11.5 212.34-9.65L212.34-9.65Q212.34-6.75 210.97-4.58 209.59-2.4 207.29-1.2 204.99 0 202.19 0L202.19 0ZM190.29-13.95L190.29-7.55 199.89-7.55Q200.84-7.55 201.52-7.98 202.19-8.4 202.59-9.15 202.99-9.9 202.99-10.8L202.99-10.8Q202.99-11.7 202.59-12.4 202.19-13.1 201.52-13.53 200.84-13.95 199.89-13.95L199.89-13.95 190.29-13.95ZM190.29-27.25L190.29-21.25 198.84-21.25Q199.69-21.25 200.37-21.68 201.04-22.1 201.42-22.8 201.79-23.5 201.79-24.3L201.79-24.3Q201.79-25.1 201.42-25.78 201.04-26.45 200.39-26.85 199.74-27.25 198.84-27.25L198.84-27.25 190.29-27.25ZM223.94 0L213.99 0 225.24-30.75Q226.19-33.2 228.24-34.43 230.29-35.65 232.89-35.65L232.89-35.65Q235.49-35.65 237.56-34.45 239.64-33.25 240.54-30.8L240.54-30.8 251.79 0 241.54 0 239.49-6.4 226.09-6.4 223.94 0ZM232.39-26.65L228.34-14 237.29-14 233.44-26.65Q233.39-26.85 233.24-26.95 233.09-27.05 232.89-27.05L232.89-27.05Q232.74-27.05 232.61-26.95 232.49-26.85 232.39-26.65L232.39-26.65ZM263.24 0L253.69 0 253.69-35 269.94-35Q273.64-35 276.64-33.43 279.64-31.85 281.44-29.08 283.24-26.3 283.24-22.6L283.24-22.6Q283.24-19.4 281.71-16.73 280.19-14.05 277.64-12.4L277.64-12.4 279.99-8.5Q280.29-8.05 280.66-7.83 281.04-7.6 281.69-7.6L281.69-7.6 284.49-7.6 284.49 0 279.29 0Q276.79 0 274.84-1.13 272.89-2.25 271.84-4.05L271.84-4.05 268.29-10.15Q267.99-10.15 267.69-10.15 267.39-10.15 267.14-10.15L267.14-10.15 263.24-10.15 263.24 0ZM263.24-27.25L263.24-17.75 268.94-17.75Q270.19-17.75 271.24-18.32 272.29-18.9 272.94-20 273.59-21.1 273.59-22.55L273.59-22.55Q273.59-24 272.94-25.05 272.29-26.1 271.24-26.68 270.19-27.25 268.94-27.25L268.94-27.25 263.24-27.25Z" opacity="1" transform="matrix(1,0,0,1,0,0)" fill="#374151" class="wordmark-text-0" data-fill-palette-color="primary" id="text-0"></path></svg></g></svg></g></svg></g></svg></g><g transform="matrix(1,0,0,1,407.3238,0)"><svg viewBox="0 0 124.08939728783156 124.08939728783156" height="124.08939728783156" width="124.08939728783156"><g><svg xmlns="http://www.w3.org/2000/svg" xmlns:xlink="http://www.w3.org/1999/xlink" version="1.1" x="0" y="0" viewBox="12 12 75 75" enable-background="new 0 0 100 100" xml:space="preserve" height="124.08939728783156" width="124.08939728783156" class="icon-icon-0" data-fill-palette-color="accent" id="icon-0"><g fill="#374151" data-fill-palette-color="accent"><g fill="#374151" data-fill-palette-color="accent"><rect x="25" y="53" width="50" height="10" fill="#374151" data-fill-palette-color="accent"></rect><path d="M87 28v-8c0-4.418-3.582-8-8-8H20c-4.418 0-8 3.582-8 8v8H87zM77.566 18.533c1.547 0 2.801 1.254 2.801 2.8s-1.254 2.8-2.801 2.8c-1.546 0-2.799-1.254-2.799-2.8S76.021 18.533 77.566 18.533zM67.566 18.533c1.547 0 2.801 1.254 2.801 2.8s-1.254 2.8-2.801 2.8c-1.546 0-2.799-1.254-2.799-2.8S66.021 18.533 67.566 18.533zM57.566 18.533c1.547 0 2.801 1.254 2.801 2.8s-1.254 2.8-2.801 2.8c-1.546 0-2.799-1.254-2.799-2.8S56.021 18.533 57.566 18.533zM19 20h16c1.104 0 2 0.896 2 2s-0.896 2-2 2H19c-1.104 0-2-0.896-2-2S17.896 20 19 20z" fill="#374151" data-fill-palette-color="accent"></path><path d="M12 32v47c0 4.418 3.582 8 8 8h59c4.418 0 8-3.582 8-8V32H12zM79 65c0 1.104-0.896 2-2 2H23c-1.104 0-2-0.896-2-2V51c0-1.104 0.896-2 2-2h54c1.104 0 2 0.896 2 2V65z" fill="#374151" data-fill-palette-color="accent"></path></g></g></svg></g></svg></g></svg></g><defs></defs></svg><rect width="395.52" height="92.35720653113518" fill="none" stroke="none" visibility="hidden"></rect></g></svg></g></svg>